<?xml version="1.0" encoding="UTF-8" standalone="no"?>
<svg width="20px" height="18px" viewBox="0 0 20 18" version="1.1" xmlns="http://www.w3.org/2000/svg" xmlns:xlink="http://www.w3.org/1999/xlink">
    <!-- Generator: Sketch 39.1 (31720) - http://www.bohemiancoding.com/sketch -->
    <title>Shape</title>
    <desc>Created with Sketch.</desc>
    <defs></defs>
    <g id="Page-1" stroke="none" stroke-width="1" fill="none" fill-rule="evenodd">
        <g id="Архивный-заказ-с-историей-Copy-3" transform="translate(-502.000000, -345.000000)" fill="#E48F08">
            <g id="Group-24" transform="translate(-208.000000, 0.000000)">
                <g id="star" transform="translate(663.000000, 345.000000)">
                    <g id="Capa_1">
                        <path d="M57.4720643,0.340046677 L59.4857934,6.51430287 L66.0605858,6.50731792 C66.3342408,6.50731792 66.5588235,6.72210503 66.5588235,6.99233515 C66.5588235,7.15167924 66.474826,7.29705344 66.3554612,7.38742119 L66.3554612,7.38742119 L61.0295787,11.1915977 L63.0716017,17.3654173 C63.1555992,17.6216776 63.015456,17.8919077 62.755948,17.9752905 C62.587511,18.0307335 62.404927,17.9892604 62.2789307,17.8853593 L57.0016784,14.0807462 L51.6899428,17.9058776 C51.4653601,18.0652217 51.1567799,18.0167636 51.0024897,17.8019765 C50.9043453,17.6701356 50.8831249,17.5038066 50.9321971,17.3654173 L50.9251236,17.3654173 L52.9742201,11.1915977 L47.6483376,7.38698463 C47.4237549,7.22764054 47.3746827,6.92292224 47.5360463,6.70769858 C47.6412642,6.56232438 47.8026277,6.49291147 47.9710648,6.50688136 L54.510932,6.51386631 L56.5317346,0.339610117 C56.615732,0.0833498908 56.889387,-0.0554759219 57.1493371,0.020921931 C57.3107007,0.0768015034 57.42255,0.194235917 57.4720643,0.340046677 L57.4720643,0.340046677 L57.4720643,0.340046677 Z" id="Shape"></path>
                    </g>
                </g>
            </g>
        </g>
    </g>
</svg>