<?xml version="1.0" encoding="UTF-8" standalone="no"?>
<svg width="21px" height="20px" viewBox="0 0 21 20" version="1.1" xmlns="http://www.w3.org/2000/svg" xmlns:xlink="http://www.w3.org/1999/xlink">
    <!-- Generator: Sketch 39.1 (31720) - http://www.bohemiancoding.com/sketch -->
    <title>Shape</title>
    <desc>Created with Sketch.</desc>
    <defs></defs>
    <g id="Page-1" stroke="none" stroke-width="1" fill="none" fill-rule="evenodd">
        <g id="Архивный-заказ-с-историей-Copy-3" transform="translate(-525.000000, -344.000000)" stroke="#E19000">
            <g id="Group-24" transform="translate(-208.000000, 0.000000)">
                <g id="star" transform="translate(663.000000, 345.000000)">
                    <g id="Capa_1">
                        <path d="M81.1926525,0.340046677 L83.2063816,6.51430287 L89.7811741,6.50731792 C90.054829,6.50731792 90.2794118,6.72210503 90.2794118,6.99233515 C90.2794118,7.15167924 90.1954143,7.29705344 90.0760494,7.38742119 L90.0760494,7.38742119 L84.7501669,11.1915977 L86.79219,17.3654173 C86.8761874,17.6216776 86.7360443,17.8919077 86.4765363,17.9752905 C86.3080992,18.0307335 86.1255152,17.9892604 85.999519,17.8853593 L80.7222666,14.0807462 L75.4105311,17.9058776 C75.1859483,18.0652217 74.8773681,18.0167636 74.723078,17.8019765 C74.6249335,17.6701356 74.6037131,17.5038066 74.6527853,17.3654173 L74.6457119,17.3654173 L76.6948084,11.1915977 L71.3689259,7.38698463 C71.1443431,7.22764054 71.0952709,6.92292224 71.2566345,6.70769858 C71.3618524,6.56232438 71.523216,6.49291147 71.691653,6.50688136 L78.2315202,6.51386631 L80.2523228,0.339610117 C80.3363203,0.0833498908 80.6099752,-0.0554759219 80.8699253,0.020921931 C81.0312889,0.0768015034 81.1431382,0.194235917 81.1926525,0.340046677 L81.1926525,0.340046677 L81.1926525,0.340046677 Z" id="Shape"></path>
                    </g>
                </g>
            </g>
        </g>
    </g>
</svg>